HIERARCHY
ROOT Hips
{
	OFFSET 0.000000 100.481300 0.000000
	CHANNELS 6 Xposition Yposition Zposition Xrotation Yrotation Zrotation
	JOINT Spine
	{
		OFFSET -0.279200 12.230698 -2.892100
		CHANNELS 3 Xrotation Yrotation Zrotation
		JOINT Spine1
		{
			OFFSET -0.325700 14.269203 -3.374200
			CHANNELS 3 Xrotation Yrotation Zrotation
			JOINT Spine2
			{
				OFFSET -0.372300 16.307602 -0.352600
				CHANNELS 3 Xrotation Yrotation Zrotation
				JOINT Neck
				{
					OFFSET -0.418800 17.814194 8.416900
					CHANNELS 3 Xrotation Yrotation Zrotation
					JOINT Head
					{
						OFFSET 0.000000 7.031097 3.806800
						CHANNELS 3 Xrotation Yrotation Zrotation
						JOINT HeadTop_End
						{
							OFFSET 0.000000 24.646606 12.978600
							CHANNELS 3 Xrotation Yrotation Zrotation
							End Site
							{
								OFFSET 0.000000 27.854965 0.000000
							}
						}
					}
				}
				JOINT LeftShoulder
				{
					OFFSET 16.952999 14.495407 -7.737500
					CHANNELS 3 Xrotation Yrotation Zrotation
					JOINT LeftArm
					{
						OFFSET 9.308998 -2.777710 0.208600
						CHANNELS 3 Xrotation Yrotation Zrotation
						JOINT LeftForeArm
						{
							OFFSET 29.972298 0.000000 0.000000
							CHANNELS 3 Xrotation Yrotation Zrotation
							JOINT LeftHand
							{
								OFFSET 26.026505 0.000000 0.000000
								CHANNELS 3 Xrotation Yrotation Zrotation
								JOINT LeftHandThumb1
								{
									OFFSET 12.240501 -7.147949 9.207150
									CHANNELS 3 Xrotation Yrotation Zrotation
									JOINT LeftHandThumb2
									{
										OFFSET 4.138618 -2.389435 2.389433
										CHANNELS 3 Xrotation Yrotation Zrotation
										JOINT LeftHandThumb3
										{
											OFFSET 2.726913 -1.574387 1.574386
											CHANNELS 3 Xrotation Yrotation Zrotation
											JOINT LeftHandThumb4
											{
												OFFSET 3.941010 -2.275345 2.275342
												CHANNELS 3 Xrotation Yrotation Zrotation
												End Site
												{
													OFFSET -0.005798 5.087799 0.009903
												}
											}
										}
									}
								}
								JOINT LeftHandIndex1
								{
									OFFSET 24.424698 -1.985611 5.953459
									CHANNELS 3 Xrotation Yrotation Zrotation
									JOINT LeftHandIndex2
									{
										OFFSET 6.426697 0.000000 0.000000
										CHANNELS 3 Xrotation Yrotation Zrotation
										JOINT LeftHandIndex3
										{
											OFFSET 5.337898 0.000000 0.000000
											CHANNELS 3 Xrotation Yrotation Zrotation
											JOINT LeftHandIndex4
											{
												OFFSET 4.409401 0.000000 0.000000
												CHANNELS 3 Xrotation Yrotation Zrotation
												End Site
												{
													OFFSET 0.000000 4.409363 0.014373
												}
											}
										}
									}
								}
								JOINT LeftHandMiddle1
								{
									OFFSET 23.810104 0.000000 0.000000
									CHANNELS 3 Xrotation Yrotation Zrotation
									JOINT LeftHandMiddle2
									{
										OFFSET 7.176498 0.000000 0.000000
										CHANNELS 3 Xrotation Yrotation Zrotation
										JOINT LeftHandMiddle3
										{
											OFFSET 6.774902 0.000000 0.000000
											CHANNELS 3 Xrotation Yrotation Zrotation
											JOINT LeftHandMiddle4
											{
												OFFSET 5.403328 0.000000 0.000000
												CHANNELS 3 Xrotation Yrotation Zrotation
												End Site
												{
													OFFSET -0.027702 5.403244 0.017414
												}
											}
										}
									}
								}
								JOINT LeftHandRing1
								{
									OFFSET 22.908401 -0.839279 -6.020567
									CHANNELS 3 Xrotation Yrotation Zrotation
									JOINT LeftHandRing2
									{
										OFFSET 6.337502 0.000000 0.000000
										CHANNELS 3 Xrotation Yrotation Zrotation
										JOINT LeftHandRing3
										{
											OFFSET 5.779297 0.000000 0.000000
											CHANNELS 3 Xrotation Yrotation Zrotation
											JOINT LeftHandRing4
											{
												OFFSET 4.965698 0.000000 0.000000
												CHANNELS 3 Xrotation Yrotation Zrotation
												End Site
												{
													OFFSET 0.000000 4.965668 0.016186
												}
											}
										}
									}
								}
								JOINT LeftHandPinky1
								{
									OFFSET 20.037003 -1.530319 -10.950146
									CHANNELS 3 Xrotation Yrotation Zrotation
									JOINT LeftHandPinky2
									{
										OFFSET 5.254700 0.000000 0.000000
										CHANNELS 3 Xrotation Yrotation Zrotation
										JOINT LeftHandPinky3
										{
											OFFSET 4.810204 0.000000 0.000000
											CHANNELS 3 Xrotation Yrotation Zrotation
											JOINT LeftHandPinky4
											{
												OFFSET 3.647202 0.000000 0.000000
												CHANNELS 3 Xrotation Yrotation Zrotation
												End Site
												{
													OFFSET 0.000000 3.647186 0.011889
												}
											}
										}
									}
								}
							}
						}
					}
				}
				JOINT RightShoulder
				{
					OFFSET -15.141001 14.495407 -7.737500
					CHANNELS 3 Xrotation Yrotation Zrotation
					JOINT RightArm
					{
						OFFSET -9.308998 -2.777710 0.208500
						CHANNELS 3 Xrotation Yrotation Zrotation
						JOINT RightForeArm
						{
							OFFSET -29.972300 0.000000 0.000000
							CHANNELS 3 Xrotation Yrotation Zrotation
							JOINT RightHand
							{
								OFFSET -26.026505 0.000000 0.000000
								CHANNELS 3 Xrotation Yrotation Zrotation
								JOINT RightHandThumb1
								{
									OFFSET -12.240601 -7.148026 9.207092
									CHANNELS 3 Xrotation Yrotation Zrotation
									JOINT RightHandThumb2
									{
										OFFSET -4.138618 -2.389435 2.389433
										CHANNELS 3 Xrotation Yrotation Zrotation
										JOINT RightHandThumb3
										{
											OFFSET -2.726974 -1.574417 1.574421
											CHANNELS 3 Xrotation Yrotation Zrotation
											JOINT RightHandThumb4
											{
												OFFSET -3.941010 -2.275345 2.275343
												CHANNELS 3 Xrotation Yrotation Zrotation
												End Site
												{
													OFFSET 0.005814 5.087799 0.009927
												}
											}
										}
									}
								}
								JOINT RightHandIndex1
								{
									OFFSET -24.424698 -1.985657 5.953444
									CHANNELS 3 Xrotation Yrotation Zrotation
									JOINT RightHandIndex2
									{
										OFFSET -6.426697 0.000000 0.000000
										CHANNELS 3 Xrotation Yrotation Zrotation
										JOINT RightHandIndex3
										{
											OFFSET -5.337898 0.000000 0.000000
											CHANNELS 3 Xrotation Yrotation Zrotation
											JOINT RightHandIndex4
											{
												OFFSET -4.409401 0.000000 0.000000
												CHANNELS 3 Xrotation Yrotation Zrotation
												End Site
												{
													OFFSET 0.000000 4.409363 0.014408
												}
											}
										}
									}
								}
								JOINT RightHandMiddle1
								{
									OFFSET -23.810097 0.000000 0.000000
									CHANNELS 3 Xrotation Yrotation Zrotation
									JOINT RightHandMiddle2
									{
										OFFSET -7.176498 0.000000 0.000000
										CHANNELS 3 Xrotation Yrotation Zrotation
										JOINT RightHandMiddle3
										{
											OFFSET -6.774902 0.000000 0.000000
											CHANNELS 3 Xrotation Yrotation Zrotation
											JOINT RightHandMiddle4
											{
												OFFSET -5.403328 0.000000 0.000000
												CHANNELS 3 Xrotation Yrotation Zrotation
												End Site
												{
													OFFSET 0.027702 5.403244 0.017457
												}
											}
										}
									}
								}
								JOINT RightHandRing1
								{
									OFFSET -22.908302 -0.839325 -6.020576
									CHANNELS 3 Xrotation Yrotation Zrotation
									JOINT RightHandRing2
									{
										OFFSET -6.337502 0.000000 0.000000
										CHANNELS 3 Xrotation Yrotation Zrotation
										JOINT RightHandRing3
										{
											OFFSET -5.779297 0.000000 0.000000
											CHANNELS 3 Xrotation Yrotation Zrotation
											JOINT RightHandRing4
											{
												OFFSET -4.965698 0.000000 0.000000
												CHANNELS 3 Xrotation Yrotation Zrotation
												End Site
												{
													OFFSET 0.000000 4.965668 0.016226
												}
											}
										}
									}
								}
								JOINT RightHandPinky1
								{
									OFFSET -20.037003 -1.530334 -10.950259
									CHANNELS 3 Xrotation Yrotation Zrotation
									JOINT RightHandPinky2
									{
										OFFSET -5.254700 0.000000 0.000000
										CHANNELS 3 Xrotation Yrotation Zrotation
										JOINT RightHandPinky3
										{
											OFFSET -4.810204 0.000000 0.000000
											CHANNELS 3 Xrotation Yrotation Zrotation
											JOINT RightHandPinky4
											{
												OFFSET -3.647202 0.000000 0.000000
												CHANNELS 3 Xrotation Yrotation Zrotation
												End Site
												{
													OFFSET 0.000000 3.647186 0.011917
												}
											}
										}
									}
								}
							}
						}
					}
				}
			}
		}
	}
	JOINT LeftUpLeg
	{
		OFFSET 15.427100 -6.655098 0.678600
		CHANNELS 3 Xrotation Yrotation Zrotation
		JOINT LeftLeg
		{
			OFFSET 4.081073 -39.591068 13.024000
			CHANNELS 3 Xrotation Yrotation Zrotation
			JOINT LeftFoot
			{
				OFFSET -4.081074 -37.707932 -15.979700
				CHANNELS 3 Xrotation Yrotation Zrotation
				JOINT LeftToeBase
				{
					OFFSET 5.346399 -15.068900 20.645000
					CHANNELS 3 Xrotation Yrotation Zrotation
					JOINT LeftToe_End
					{
						OFFSET 2.754700 0.931300 11.300900
						CHANNELS 3 Xrotation Yrotation Zrotation
						End Site
						{
							OFFSET 0.000000 11.669021 0.000000
						}
					}
				}
			}
		}
	}
	JOINT RightUpLeg
	{
		OFFSET -15.569500 -6.655098 0.678600
		CHANNELS 3 Xrotation Yrotation Zrotation
		JOINT RightLeg
		{
			OFFSET -4.081825 -39.591045 13.023800
			CHANNELS 3 Xrotation Yrotation Zrotation
			JOINT RightFoot
			{
				OFFSET 4.081824 -37.707954 -15.979600
				CHANNELS 3 Xrotation Yrotation Zrotation
				JOINT RightToeBase
				{
					OFFSET -5.346400 -15.068900 20.645000
					CHANNELS 3 Xrotation Yrotation Zrotation
					JOINT RightToe_End
					{
						OFFSET -2.754700 0.931300 11.300900
						CHANNELS 3 Xrotation Yrotation Zrotation
						End Site
						{
							OFFSET 0.000000 11.669021 0.000000
						}
					}
				}
			}
		}
	}
}
MOTION
Frames: 5
Frame Time: 0.033333
-1.424343 90.551361 -1.701460 -3.941847 26.358320 4.466645 0.680672 -0.980369 0.182030 1.340986 -1.664718 -0.625785 1.340985 -1.664721 -0.625786 5.344250 2.848432 0.081961 -8.849002 -23.163318 0.010231 0.000000 0.000000 0.000000 0.687025 -1.720970 -16.184960 21.154846 10.337099 -65.940456 0.799209 -29.202740 0.389871 10.045975 -13.343814 -1.560766 -13.245518 -8.807441 4.147722 19.790632 41.359780 -16.357719 0.000001 0.000001 -0.000006 -0.000000 -0.000003 -0.000001 -6.099437 11.144597 -48.252882 1.183295 2.209540 -29.742800 -0.000000 0.000001 0.000000 0.000000 0.000001 0.000001 1.452906 9.058651 -37.943852 -0.026519 -0.717510 -18.317644 0.000000 0.000001 -0.000004 -0.000000 -0.000001 0.000001 0.612772 4.124986 -40.303662 -0.596055 -1.128504 -24.812921 0.000004 0.000001 0.000007 0.000001 -0.000001 -0.000002 4.307819 -0.477126 -68.014477 -0.587817 -2.553519 -15.106666 -0.000002 0.000000 -0.000001 -0.000000 -0.000001 -0.000001 0.498272 8.082901 11.895982 8.682293 -24.982826 71.722068 1.521835 34.105225 -0.853351 -12.908675 2.563515 10.841585 -13.310437 1.233449 -13.373313 14.414505 -28.815052 7.352654 -0.000002 0.000001 0.000003 0.000000 0.000000 0.000000 -8.695145 -4.303382 29.290979 0.517145 -1.652090 29.462612 -0.000002 -0.000000 0.000002 -0.000001 0.000000 0.000000 -2.152890 -2.593301 30.927486 -1.373762 2.669751 49.794664 0.000003 -0.000000 -0.000000 -0.000001 0.000000 -0.000000 -0.502580 -5.481723 31.396956 -0.926229 1.477631 43.171891 -0.000001 -0.000000 -0.000001 0.000000 -0.000000 -0.000001 -0.549559 -0.372859 34.104268 -0.179145 1.543842 15.228270 0.000010 0.000003 -0.000010 0.000002 0.000002 0.000002 0.522253 4.969940 -3.869527 25.784751 -0.544310 -1.244463 -24.929463 40.491790 8.509761 4.767260 0.437942 -4.711131 0.000000 -0.000001 -0.000000 -22.495013 2.133591 -9.242341 28.329249 0.110075 1.014267 1.406190 -32.105837 5.781995 0.722541 -0.023066 0.724567 0.000000 -0.000000 -0.000000 
-1.442973 90.576912 -1.679734 -3.897832 26.441097 4.433378 0.664192 -0.982457 0.187078 1.308023 -1.670128 -0.616702 1.308023 -1.670127 -0.616701 5.265046 2.908121 0.069541 -8.829884 -22.254425 -0.065195 -0.000000 0.000000 -0.000000 0.692661 -1.626762 -16.215419 21.138676 10.307870 -65.861206 0.801733 -29.199062 0.391044 10.054654 -13.328244 -1.577039 -13.310244 -8.872214 4.102024 19.777969 41.347762 -16.347605 -0.000000 0.000003 -0.000005 -0.000000 0.000002 0.000000 -6.112792 11.133147 -48.271846 1.183899 2.210345 -29.757010 -0.000000 0.000000 0.000002 0.000001 0.000000 0.000001 1.447031 9.052413 -37.934054 -0.026511 -0.717506 -18.317650 -0.000000 0.000002 0.000003 -0.000001 0.000001 -0.000000 0.602280 4.112712 -40.284118 -0.596071 -1.128543 -24.813451 0.000003 0.000000 0.000007 -0.000000 -0.000001 -0.000003 4.318099 -0.470517 -67.990742 -0.587806 -2.553515 -15.106667 -0.000002 0.000001 0.000002 -0.000001 -0.000000 0.000000 0.490148 8.299931 11.982486 8.871660 -25.087927 71.640297 1.529960 33.880836 -0.852919 -14.062367 2.724516 11.341101 -13.287144 1.197821 -13.394902 14.419066 -28.821739 7.354925 -0.000001 0.000002 0.000003 0.000000 0.000000 -0.000000 -8.684845 -4.323540 29.299138 0.517139 -1.652100 29.462629 -0.000002 -0.000000 0.000001 0.000001 -0.000000 0.000001 -2.133933 -2.619883 30.880200 -1.373868 2.669842 49.796348 0.000000 -0.000000 -0.000001 -0.000001 0.000000 -0.000000 -0.503841 -5.479401 31.449756 -0.926228 1.477635 43.171905 -0.000003 0.000000 -0.000001 -0.000001 0.000000 -0.000000 -0.527663 -0.398127 34.049804 -0.177157 1.532077 15.123652 0.000007 0.000001 -0.000009 -0.000001 -0.000000 -0.000001 0.504613 5.198240 -3.767765 25.739465 -0.477545 -1.212144 -24.777817 40.310158 8.287247 4.717055 0.441113 -4.729448 0.000000 0.000001 -0.000000 -22.487788 2.052603 -9.232208 28.278233 0.106279 1.013099 1.392646 -32.134312 5.754016 0.727656 -0.023204 0.729610 0.000000 0.000001 -0.000000 
-1.483818 90.617996 -1.634263 -3.895911 26.694597 4.419286 0.658146 -0.981239 0.191756 1.296186 -1.670294 -0.599849 1.296186 -1.670300 -0.599849 5.139918 2.817765 0.039323 -8.973672 -21.316824 -0.285156 -0.000000 -0.000000 0.000000 0.695855 -1.562557 -16.168909 21.088385 10.251913 -65.870604 0.806058 -29.239719 0.393672 10.111044 -13.330208 -1.580077 -13.263883 -8.811330 4.108742 19.794021 41.362984 -16.360446 0.000001 0.000006 -0.000005 0.000000 -0.000001 0.000000 -6.088021 11.152290 -48.358480 1.183978 2.210451 -29.759131 0.000000 0.000000 -0.000000 0.000000 0.000001 -0.000001 1.470588 9.084449 -37.919663 -0.026519 -0.717503 -18.317647 0.000000 0.000002 0.000001 0.000000 -0.000000 0.000003 0.611249 4.122449 -40.375540 -0.596014 -1.128432 -24.811980 0.000004 0.000001 0.000009 0.000001 0.000000 0.000001 4.310047 -0.466650 -67.895721 -0.587622 -2.552979 -15.103529 -0.000003 0.000002 -0.000000 0.000002 0.000000 0.000000 0.470415 8.691026 12.245237 8.736554 -25.260690 71.150197 1.491766 32.779027 -0.807671 -15.644060 3.081843 11.737263 -13.306473 1.222202 -13.365845 14.427211 -28.833678 7.358993 -0.000002 0.000002 0.000003 -0.000000 -0.000000 -0.000000 -8.692357 -4.311104 29.305603 0.516454 -1.651138 29.438669 -0.000001 -0.000000 0.000001 0.000000 -0.000000 0.000001 -2.150277 -2.601247 30.960185 -1.374031 2.669981 49.799732 -0.000000 -0.000000 -0.000000 -0.000002 -0.000000 0.000000 -0.493432 -5.496731 31.344595 -0.926226 1.477627 43.171925 -0.000003 -0.000000 -0.000001 0.000001 0.000001 0.000001 -0.551050 -0.366213 34.066637 -0.177106 1.531841 15.121499 0.000005 0.000003 -0.000006 0.000002 -0.000001 -0.000003 0.506203 5.434850 -3.619103 25.649428 -0.606354 -1.210201 -24.623629 40.126439 8.116956 4.634038 0.446375 -4.759552 -0.000000 -0.000000 -0.000000 -22.378775 1.913973 -9.232573 28.215433 0.103630 1.013139 1.334242 -32.295392 5.726931 0.741523 -0.023708 0.743435 0.000000 0.000001 -0.000000 
-1.554721 90.661850 -1.574922 -3.936448 27.135606 4.416119 0.668219 -0.966647 0.203106 1.316981 -1.644726 -0.569006 1.316981 -1.644718 -0.569006 4.993871 2.683370 0.000338 -9.193546 -20.327978 -0.569631 0.000000 -0.000000 0.000000 0.690705 -1.602466 -15.985583 21.016265 10.175644 -66.058352 0.813911 -29.356932 0.398964 10.207552 -13.352673 -1.599684 -13.286798 -8.805697 4.041270 19.806346 41.374670 -16.370288 -0.000000 0.000004 -0.000006 -0.000001 -0.000001 -0.000000 -6.066761 11.169641 -48.375320 1.184534 2.211192 -29.772501 -0.000000 -0.000001 0.000001 0.000000 -0.000001 -0.000001 1.466962 9.078350 -37.930817 -0.026516 -0.717509 -18.317695 -0.000001 0.000001 -0.000000 -0.000001 0.000000 0.000000 0.606727 4.117478 -40.335836 -0.595828 -1.128074 -24.807741 0.000002 0.000001 0.000005 0.000000 0.000002 0.000000 4.323433 -0.465412 -67.957466 -0.586637 -2.550193 -15.087488 -0.000001 0.000001 0.000001 0.000000 0.000001 0.000001 0.436934 9.206241 12.678705 7.611230 -25.585204 70.007301 1.351024 30.529924 -0.686297 -16.708437 3.051734 10.960847 -13.295471 1.206998 -13.379531 14.436500 -28.847297 7.363598 -0.000001 0.000002 0.000003 -0.000000 -0.000000 0.000000 -8.694704 -4.304556 29.292875 0.512975 -1.646283 29.316603 -0.000000 -0.000000 0.000001 0.000001 0.000001 -0.000001 -2.138979 -2.614992 30.912852 -1.374898 2.670713 49.816893 -0.000002 -0.000000 -0.000000 -0.000000 -0.000000 -0.000000 -0.493507 -5.496619 31.342881 -0.926223 1.477643 43.171891 -0.000003 -0.000000 -0.000001 -0.000003 0.000000 -0.000001 -0.561455 -0.354709 34.096523 -0.177116 1.531842 15.121516 0.000005 0.000003 -0.000009 -0.000001 0.000001 -0.000004 0.466339 5.545504 -3.451555 25.584651 -0.895725 -1.216350 -24.491865 40.037329 8.041739 4.551163 0.452206 -4.792370 0.000000 -0.000000 -0.000000 -22.183684 1.746872 -9.223287 28.163460 0.104552 1.014923 1.231721 -32.628363 5.695058 0.789613 -0.024735 0.790856 0.000000 -0.000000 -0.000000 
-1.652816 90.696411 -1.520664 -3.972762 27.626864 4.405600 0.686368 -0.918162 0.220491 1.354646 -1.551689 -0.530334 1.354646 -1.551691 -0.530335 4.832744 2.506192 -0.044439 -9.456511 -19.321239 -0.897187 0.000000 0.000001 0.000000 0.680200 -1.714636 -15.708723 20.937072 10.136055 -66.367391 0.823055 -29.510454 0.405365 10.232683 -13.389983 -1.611103 -13.269277 -8.811042 4.094729 19.797939 41.366692 -16.363574 -0.000001 0.000004 -0.000006 -0.000001 0.000001 0.000000 -6.091208 11.149651 -48.358265 1.185412 2.212359 -29.793128 -0.000000 0.000001 -0.000000 0.000000 0.000000 0.000001 1.461213 9.076760 -37.886697 -0.026615 -0.718008 -18.327206 -0.000001 0.000001 -0.000000 -0.000001 0.000001 0.000004 0.605318 4.115717 -40.345729 -0.595043 -1.126563 -24.789864 0.000003 -0.000001 0.000005 0.000001 0.000000 0.000000 4.336329 -0.456265 -67.917202 -0.587406 -2.552371 -15.100088 -0.000002 -0.000000 0.000002 0.000000 0.000001 -0.000002 0.392074 9.853796 13.169396 5.161474 -26.098155 68.225940 1.115540 27.674829 -0.518090 -17.240847 2.117168 8.468522 -13.299736 1.204460 -13.355925 14.431776 -28.840358 7.361277 -0.000001 0.000002 0.000003 0.000000 0.000000 0.000000 -8.686622 -4.311778 29.251935 0.515711 -1.650099 29.412430 0.000001 -0.000001 -0.000001 0.000001 -0.000000 -0.000002 -2.149509 -2.596123 30.901746 -1.374219 2.670142 49.803414 0.000001 -0.000000 -0.000001 0.000001 -0.000001 0.000000 -0.485744 -5.509062 31.340685 -0.926224 1.477642 43.171894 -0.000005 0.000000 -0.000001 -0.000003 -0.000001 0.000000 -0.521077 -0.404486 34.022900 -0.177109 1.531840 15.121515 0.000008 0.000004 -0.000011 0.000001 0.000001 -0.000002 0.354137 5.512083 -3.292585 25.573803 -1.200831 -1.219233 -24.378590 40.072208 8.010010 4.503594 0.456376 -4.814890 -0.000000 0.000002 -0.000000 -22.003082 1.597631 -9.188026 28.132163 0.107020 1.017254 1.121098 -33.024562 5.648767 0.827720 -0.025968 0.828273 0.000000 -0.000000 -0.000000 
